# xmcd
#
# Track frame offsets:
#	150
#	14354
#	28193
#	41505
#	50998
#	67919
#	78081
#	90758
#	106585
#	124048
#	141342
#	155895
#
# Disc length: 2294 seconds
#
# Revision: 1
# Processed by: cddbd v1.5.1PL0 Copyright (c) Steve Scherf et al.
# Submitted via: audiograbber 1.83.01
#
DISCID=9408f40c
DTITLE=Pilomena Begley and Ray Lynam - Simply Devine
DYEAR=1900
DGENRE=Country
TTITLE0=You don't know Love
TTITLE1=Simply devine
TTITLE2=Together alone
TTITLE3=Near you
TTITLE4=Don't Cross over and love me
TTITLE5=Making plans
TTITLE6=Sweetest of all
TTITLE7=I'll never need another you
TTITLE8=She sang the Melody
TTITLE9=As long as we're dreaming
TTITLE10=We're gonna hold on
TTITLE11=Fire of two old Flames
EXTD=
EXTT0=
EXTT1=
EXTT2=
EXTT3=
EXTT4=
EXTT5=
EXTT6=
EXTT7=
EXTT8=
EXTT9=
EXTT10=
EXTT11=
PLAYORDER=
